<svg width="532" height="189" viewBox="0 0 532 189" fill="none" xmlns="http://www.w3.org/2000/svg">
<path d="M103.351 67.415C103.351 68.507 103.288 69.662 103.162 70.88H75.568C75.778 74.282 76.933 76.949 79.033 78.881C81.175 80.771 83.758 81.716 86.782 81.716C89.26 81.716 91.318 81.149 92.956 80.015C94.636 78.839 95.812 77.285 96.484 75.353H102.658C101.734 78.671 99.886 81.38 97.114 83.48C94.342 85.538 90.898 86.567 86.782 86.567C83.506 86.567 80.566 85.832 77.962 84.362C75.4 82.892 73.384 80.813 71.914 78.125C70.444 75.395 69.709 72.245 69.709 68.675C69.709 65.105 70.423 61.976 71.851 59.288C73.279 56.6 75.274 54.542 77.836 53.114C80.44 51.644 83.422 50.909 86.782 50.909C90.058 50.909 92.956 51.623 95.476 53.051C97.996 54.479 99.928 56.453 101.272 58.973C102.658 61.451 103.351 64.265 103.351 67.415ZM97.429 66.218C97.429 64.034 96.946 62.165 95.98 60.611C95.014 59.015 93.691 57.818 92.011 57.02C90.373 56.18 88.546 55.76 86.53 55.76C83.632 55.76 81.154 56.684 79.096 58.532C77.08 60.38 75.925 62.942 75.631 66.218H97.429ZM116.021 57.083C117.029 55.109 118.457 53.576 120.305 52.484C122.195 51.392 124.484 50.846 127.172 50.846V56.768H125.66C119.234 56.768 116.021 60.254 116.021 67.226V86H110.288V51.476H116.021V57.083ZM145.382 86.567C142.736 86.567 140.363 86.126 138.263 85.244C136.163 84.32 134.504 83.06 133.286 81.464C132.068 79.826 131.396 77.957 131.27 75.857H137.192C137.36 77.579 138.158 78.986 139.586 80.078C141.056 81.17 142.967 81.716 145.319 81.716C147.503 81.716 149.225 81.233 150.485 80.267C151.745 79.301 152.375 78.083 152.375 76.613C152.375 75.101 151.703 73.988 150.359 73.274C149.015 72.518 146.936 71.783 144.122 71.069C141.56 70.397 139.46 69.725 137.822 69.053C136.226 68.339 134.84 67.31 133.664 65.966C132.53 64.58 131.963 62.774 131.963 60.548C131.963 58.784 132.488 57.167 133.538 55.697C134.588 54.227 136.079 53.072 138.011 52.232C139.943 51.35 142.148 50.909 144.626 50.909C148.448 50.909 151.535 51.875 153.887 53.807C156.239 55.739 157.499 58.385 157.667 61.745H151.934C151.808 59.939 151.073 58.49 149.729 57.398C148.427 56.306 146.663 55.76 144.437 55.76C142.379 55.76 140.741 56.201 139.523 57.083C138.305 57.965 137.696 59.12 137.696 60.548C137.696 61.682 138.053 62.627 138.767 63.383C139.523 64.097 140.447 64.685 141.539 65.147C142.673 65.567 144.227 66.05 146.201 66.596C148.679 67.268 150.695 67.94 152.249 68.612C153.803 69.242 155.126 70.208 156.218 71.51C157.352 72.812 157.94 74.513 157.982 76.613C157.982 78.503 157.457 80.204 156.407 81.716C155.357 83.228 153.866 84.425 151.934 85.307C150.044 86.147 147.86 86.567 145.382 86.567ZM171.178 57.839C172.312 55.865 173.992 54.227 176.218 52.925C178.486 51.581 181.111 50.909 184.093 50.909C187.159 50.909 189.931 51.644 192.409 53.114C194.929 54.584 196.903 56.663 198.331 59.351C199.759 61.997 200.473 65.084 200.473 68.612C200.473 72.098 199.759 75.206 198.331 77.936C196.903 80.666 194.929 82.787 192.409 84.299C189.931 85.811 187.159 86.567 184.093 86.567C181.153 86.567 178.549 85.916 176.281 84.614C174.055 83.27 172.354 81.611 171.178 79.637V102.38H165.445V51.476H171.178V57.839ZM194.614 68.612C194.614 66.008 194.089 63.74 193.039 61.808C191.989 59.876 190.561 58.406 188.755 57.398C186.991 56.39 185.038 55.886 182.896 55.886C180.796 55.886 178.843 56.411 177.037 57.461C175.273 58.469 173.845 59.96 172.753 61.934C171.703 63.866 171.178 66.113 171.178 68.675C171.178 71.279 171.703 73.568 172.753 75.542C173.845 77.474 175.273 78.965 177.037 80.015C178.843 81.023 180.796 81.527 182.896 81.527C185.038 81.527 186.991 81.023 188.755 80.015C190.561 78.965 191.989 77.474 193.039 75.542C194.089 73.568 194.614 71.258 194.614 68.612ZM238.89 67.415C238.89 68.507 238.827 69.662 238.701 70.88H211.107C211.317 74.282 212.472 76.949 214.572 78.881C216.714 80.771 219.297 81.716 222.321 81.716C224.799 81.716 226.857 81.149 228.495 80.015C230.175 78.839 231.351 77.285 232.023 75.353H238.197C237.273 78.671 235.425 81.38 232.653 83.48C229.881 85.538 226.437 86.567 222.321 86.567C219.045 86.567 216.105 85.832 213.501 84.362C210.939 82.892 208.923 80.813 207.453 78.125C205.983 75.395 205.248 72.245 205.248 68.675C205.248 65.105 205.962 61.976 207.39 59.288C208.818 56.6 210.813 54.542 213.375 53.114C215.979 51.644 218.961 50.909 222.321 50.909C225.597 50.909 228.495 51.623 231.015 53.051C233.535 54.479 235.467 56.453 236.811 58.973C238.197 61.451 238.89 64.265 238.89 67.415ZM232.968 66.218C232.968 64.034 232.485 62.165 231.519 60.611C230.553 59.015 229.23 57.818 227.55 57.02C225.912 56.18 224.085 55.76 222.069 55.76C219.171 55.76 216.693 56.684 214.635 58.532C212.619 60.38 211.464 62.942 211.17 66.218H232.968ZM243.685 68.675C243.685 65.105 244.399 61.997 245.827 59.351C247.255 56.663 249.229 54.584 251.749 53.114C254.311 51.644 257.23 50.909 260.506 50.909C264.748 50.909 268.234 51.938 270.964 53.996C273.736 56.054 275.563 58.91 276.445 62.564H270.271C269.683 60.464 268.528 58.805 266.806 57.587C265.126 56.369 263.026 55.76 260.506 55.76C257.23 55.76 254.584 56.894 252.568 59.162C250.552 61.388 249.544 64.559 249.544 68.675C249.544 72.833 250.552 76.046 252.568 78.314C254.584 80.582 257.23 81.716 260.506 81.716C263.026 81.716 265.126 81.128 266.806 79.952C268.486 78.776 269.641 77.096 270.271 74.912H276.445C275.521 78.44 273.673 81.275 270.901 83.417C268.129 85.517 264.664 86.567 260.506 86.567C257.23 86.567 254.311 85.832 251.749 84.362C249.229 82.892 247.255 80.813 245.827 78.125C244.399 75.437 243.685 72.287 243.685 68.675ZM290.458 56.201V76.55C290.458 78.23 290.815 79.427 291.529 80.141C292.243 80.813 293.482 81.149 295.246 81.149H299.467V86H294.301C291.109 86 288.715 85.265 287.119 83.795C285.523 82.325 284.725 79.91 284.725 76.55V56.201H280.252V51.476H284.725V42.782H290.458V51.476H299.467V56.201H290.458ZM308.744 45.869C307.652 45.869 306.728 45.491 305.972 44.735C305.216 43.979 304.838 43.055 304.838 41.963C304.838 40.871 305.216 39.947 305.972 39.191C306.728 38.435 307.652 38.057 308.744 38.057C309.794 38.057 310.676 38.435 311.39 39.191C312.146 39.947 312.524 40.871 312.524 41.963C312.524 43.055 312.146 43.979 311.39 44.735C310.676 45.491 309.794 45.869 308.744 45.869ZM311.516 51.476V86H305.783V51.476H311.516ZM333.509 80.708L344.219 51.476H350.33L336.785 86H330.107L316.562 51.476H322.736L333.509 80.708ZM386.841 67.415C386.841 68.507 386.778 69.662 386.652 70.88H359.058C359.268 74.282 360.423 76.949 362.523 78.881C364.665 80.771 367.248 81.716 370.272 81.716C372.75 81.716 374.808 81.149 376.446 80.015C378.126 78.839 379.302 77.285 379.974 75.353H386.148C385.224 78.671 383.376 81.38 380.604 83.48C377.832 85.538 374.388 86.567 370.272 86.567C366.996 86.567 364.056 85.832 361.452 84.362C358.89 82.892 356.874 80.813 355.404 78.125C353.934 75.395 353.199 72.245 353.199 68.675C353.199 65.105 353.913 61.976 355.341 59.288C356.769 56.6 358.764 54.542 361.326 53.114C363.93 51.644 366.912 50.909 370.272 50.909C373.548 50.909 376.446 51.623 378.966 53.051C381.486 54.479 383.418 56.453 384.762 58.973C386.148 61.451 386.841 64.265 386.841 67.415ZM380.919 66.218C380.919 64.034 380.436 62.165 379.47 60.611C378.504 59.015 377.181 57.818 375.501 57.02C373.863 56.18 372.036 55.76 370.02 55.76C367.122 55.76 364.644 56.684 362.586 58.532C360.57 60.38 359.415 62.942 359.121 66.218H380.919Z" fill="black"/>
<path d="M59.73 66.77C59.73 73.15 57.53 78.4667 53.13 82.72C48.8033 86.9 42.1667 88.99 33.22 88.99H18.48V121H8.47V44.33H33.22C41.8733 44.33 48.4367 46.42 52.91 50.6C57.4567 54.78 59.73 60.17 59.73 66.77ZM33.22 80.74C38.7933 80.74 42.9 79.53 45.54 77.11C48.18 74.69 49.5 71.2433 49.5 66.77C49.5 57.31 44.0733 52.58 33.22 52.58H18.48V80.74H33.22Z" fill="black"/>
<path d="M90.956 126.369C88.8513 126.369 86.938 125.891 85.216 124.934C83.5213 123.977 82.182 122.624 81.198 120.875C80.2413 119.098 79.763 117.048 79.763 114.725C79.763 112.429 80.255 110.406 81.239 108.657C82.2503 106.88 83.617 105.527 85.339 104.598C87.061 103.641 88.988 103.163 91.12 103.163C93.252 103.163 95.179 103.641 96.901 104.598C98.623 105.527 99.976 106.867 100.96 108.616C101.971 110.365 102.477 112.402 102.477 114.725C102.477 117.048 101.958 119.098 100.919 120.875C99.9077 122.624 98.5273 123.977 96.778 124.934C95.0287 125.891 93.088 126.369 90.956 126.369ZM90.956 123.089C92.2953 123.089 93.5527 122.775 94.728 122.146C95.9033 121.517 96.8463 120.574 97.557 119.317C98.295 118.06 98.664 116.529 98.664 114.725C98.664 112.921 98.3087 111.39 97.598 110.133C96.8873 108.876 95.958 107.946 94.81 107.345C93.662 106.716 92.4183 106.402 91.079 106.402C89.7123 106.402 88.455 106.716 87.307 107.345C86.1863 107.946 85.2843 108.876 84.601 110.133C83.9177 111.39 83.576 112.921 83.576 114.725C83.576 116.556 83.904 118.101 84.56 119.358C85.2433 120.615 86.1453 121.558 87.266 122.187C88.3867 122.788 89.6167 123.089 90.956 123.089ZM137.764 103.532V126H134.033V122.679C133.322 123.827 132.324 124.729 131.04 125.385C129.782 126.014 128.388 126.328 126.858 126.328C125.108 126.328 123.537 125.973 122.143 125.262C120.749 124.524 119.642 123.431 118.822 121.982C118.029 120.533 117.633 118.77 117.633 116.693V103.532H121.323V116.201C121.323 118.415 121.883 120.123 123.004 121.326C124.124 122.501 125.655 123.089 127.596 123.089C129.591 123.089 131.163 122.474 132.311 121.244C133.459 120.014 134.033 118.224 134.033 115.873V103.532H137.764ZM159.069 106.607V119.85C159.069 120.943 159.302 121.722 159.766 122.187C160.231 122.624 161.037 122.843 162.185 122.843H164.932V126H161.57C159.493 126 157.935 125.522 156.896 124.565C155.858 123.608 155.338 122.037 155.338 119.85V106.607H152.427V103.532H155.338V97.874H159.069V103.532H164.932V106.607H159.069ZM211.092 126.369C208.988 126.369 207.074 125.891 205.352 124.934C203.658 123.977 202.318 122.624 201.334 120.875C200.378 119.098 199.899 117.048 199.899 114.725C199.899 112.429 200.391 110.406 201.375 108.657C202.387 106.88 203.753 105.527 205.475 104.598C207.197 103.641 209.124 103.163 211.256 103.163C213.388 103.163 215.315 103.641 217.037 104.598C218.759 105.527 220.112 106.867 221.096 108.616C222.108 110.365 222.613 112.402 222.613 114.725C222.613 117.048 222.094 119.098 221.055 120.875C220.044 122.624 218.664 123.977 216.914 124.934C215.165 125.891 213.224 126.369 211.092 126.369ZM211.092 123.089C212.432 123.089 213.689 122.775 214.864 122.146C216.04 121.517 216.983 120.574 217.693 119.317C218.431 118.06 218.8 116.529 218.8 114.725C218.8 112.921 218.445 111.39 217.734 110.133C217.024 108.876 216.094 107.946 214.946 107.345C213.798 106.716 212.555 106.402 211.215 106.402C209.849 106.402 208.591 106.716 207.443 107.345C206.323 107.946 205.421 108.876 204.737 110.133C204.054 111.39 203.712 112.921 203.712 114.725C203.712 116.556 204.04 118.101 204.696 119.358C205.38 120.615 206.282 121.558 207.402 122.187C208.523 122.788 209.753 123.089 211.092 123.089ZM247.117 106.607H242.402V126H238.671V106.607H235.76V103.532H238.671V101.933C238.671 99.4183 239.313 97.587 240.598 96.439C241.91 95.2637 244.001 94.676 246.871 94.676V97.792C245.231 97.792 244.069 98.12 243.386 98.776C242.73 99.4047 242.402 100.457 242.402 101.933V103.532H247.117V106.607ZM287.039 107.714C287.804 106.375 288.925 105.281 290.401 104.434C291.877 103.587 293.558 103.163 295.444 103.163C297.466 103.163 299.284 103.641 300.897 104.598C302.509 105.555 303.78 106.908 304.71 108.657C305.639 110.379 306.104 112.388 306.104 114.684C306.104 116.953 305.639 118.975 304.71 120.752C303.78 122.529 302.496 123.909 300.856 124.893C299.243 125.877 297.439 126.369 295.444 126.369C293.503 126.369 291.795 125.945 290.319 125.098C288.87 124.251 287.777 123.171 287.039 121.859V126H283.308V95.66H287.039V107.714ZM302.291 114.684C302.291 112.989 301.949 111.513 301.266 110.256C300.582 108.999 299.653 108.042 298.478 107.386C297.33 106.73 296.059 106.402 294.665 106.402C293.298 106.402 292.027 106.744 290.852 107.427C289.704 108.083 288.774 109.053 288.064 110.338C287.38 111.595 287.039 113.058 287.039 114.725C287.039 116.42 287.38 117.909 288.064 119.194C288.774 120.451 289.704 121.422 290.852 122.105C292.027 122.761 293.298 123.089 294.665 123.089C296.059 123.089 297.33 122.761 298.478 122.105C299.653 121.422 300.582 120.451 301.266 119.194C301.949 117.909 302.291 116.406 302.291 114.684ZM331.269 126.369C329.164 126.369 327.251 125.891 325.529 124.934C323.834 123.977 322.495 122.624 321.511 120.875C320.554 119.098 320.076 117.048 320.076 114.725C320.076 112.429 320.568 110.406 321.552 108.657C322.563 106.88 323.93 105.527 325.652 104.598C327.374 103.641 329.301 103.163 331.433 103.163C333.565 103.163 335.492 103.641 337.214 104.598C338.936 105.527 340.289 106.867 341.273 108.616C342.284 110.365 342.79 112.402 342.79 114.725C342.79 117.048 342.271 119.098 341.232 120.875C340.221 122.624 338.84 123.977 337.091 124.934C335.342 125.891 333.401 126.369 331.269 126.369ZM331.269 123.089C332.608 123.089 333.866 122.775 335.041 122.146C336.216 121.517 337.159 120.574 337.87 119.317C338.608 118.06 338.977 116.529 338.977 114.725C338.977 112.921 338.622 111.39 337.911 110.133C337.2 108.876 336.271 107.946 335.123 107.345C333.975 106.716 332.731 106.402 331.392 106.402C330.025 106.402 328.768 106.716 327.62 107.345C326.499 107.946 325.597 108.876 324.914 110.133C324.231 111.39 323.889 112.921 323.889 114.725C323.889 116.556 324.217 118.101 324.873 119.358C325.556 120.615 326.458 121.558 327.579 122.187C328.7 122.788 329.93 123.089 331.269 123.089ZM369.876 126L364.546 117.636L359.421 126H355.526L362.783 114.848L355.526 103.532H359.749L365.079 111.855L370.163 103.532H374.058L366.842 114.643L374.099 126H369.876Z" fill="black"/>
</svg>
