<svg width="891" height="608" viewBox="0 0 891 608" fill="none" xmlns="http://www.w3.org/2000/svg">
<g clip-path="url(#clip0)">
<path d="M860 557.113L860.614 519.338L886.158 472.606L860.71 513.413L860.986 496.428L878.591 462.617L861.059 491.933L861.555 461.385L880.407 434.467L861.633 456.581L861.943 400.566L859.995 474.72L860.155 471.661L840.988 442.322L859.847 477.533L858.061 511.65L858.008 510.744L835.912 479.87L857.941 513.943L857.718 518.21L857.678 518.274L857.696 518.625L853.165 605.183H859.219L859.945 560.474L881.921 526.484L860 557.113Z" fill="#E6E6E6"/>
<path d="M204.622 431.216C204.622 508.268 158.816 535.172 102.311 535.172C45.8062 535.172 0 508.268 0 431.216C0 354.164 102.311 256.142 102.311 256.142C102.311 256.142 204.622 354.164 204.622 431.216Z" fill="url(#paint0_linear)"/>
<path d="M98.584 523.385L99.632 458.9L143.239 379.122L99.796 448.784L100.267 419.788L130.321 362.07L100.392 412.115L101.239 359.966L133.421 314.015L101.372 351.765L101.901 256.142L98.575 382.73L98.848 377.508L66.128 327.424L98.323 387.533L95.275 445.775L95.184 444.229L57.463 391.523L95.07 449.69L94.688 456.974L94.62 457.083L94.651 457.681L86.916 605.446H97.251L98.491 529.122L136.005 471.098L98.584 523.385Z" fill="#3F3D56"/>
<path d="M291.492 259.679V263.553H185.367C177.301 263.553 169.314 265.142 161.861 268.229C154.409 271.315 147.638 275.84 141.935 281.543C136.231 287.247 131.707 294.018 128.62 301.47C125.533 308.922 123.944 316.91 123.944 324.976V549.816C123.944 557.882 125.533 565.869 128.62 573.321C131.707 580.773 136.231 587.545 141.935 593.248C147.638 598.952 154.409 603.476 161.861 606.563C169.314 609.65 177.301 611.239 185.367 611.239H767.578C775.644 611.239 783.631 609.65 791.083 606.563C798.535 603.476 805.306 598.952 811.01 593.248C816.714 587.545 821.238 580.773 824.325 573.321C827.411 565.869 829 557.882 829 549.816V324.976C829 316.91 827.411 308.922 824.325 301.47C821.238 294.018 816.714 287.247 811.01 281.543C805.306 275.84 798.535 271.315 791.083 268.229C783.631 265.142 775.644 263.553 767.578 263.553H367.034V259.679H291.492Z" fill="#3F3D56"/>
<path d="M185.795 276.627H767.15C779.315 276.627 790.983 281.46 799.586 290.062C808.188 298.665 813.021 310.332 813.021 322.498V548.417C813.021 560.583 808.188 572.251 799.586 580.853C790.983 589.456 779.315 594.289 767.15 594.289H185.795C173.629 594.289 161.962 589.456 153.359 580.853C144.757 572.251 139.924 560.583 139.924 548.417V521.011C143.233 522.357 146.823 522.87 150.377 522.504C153.931 522.138 157.34 520.904 160.305 518.911C163.271 516.918 165.701 514.227 167.382 511.074C169.063 507.921 169.943 504.404 169.946 500.831V372.022C169.943 368.449 169.063 364.932 167.382 361.779C165.701 358.627 163.271 355.935 160.305 353.942C157.34 351.949 153.931 350.715 150.377 350.349C146.823 349.983 143.233 350.496 139.924 351.842V322.498C139.924 310.332 144.757 298.665 153.359 290.062C161.962 281.46 173.629 276.627 185.795 276.627Z" fill="#A1C1D8"/>
<path d="M356.903 460.795C392.465 460.795 421.293 431.967 421.293 396.405C421.293 360.843 392.465 332.014 356.903 332.014C321.341 332.014 292.513 360.843 292.513 396.405C292.513 431.967 321.341 460.795 356.903 460.795Z" fill="url(#paint1_radial)"/>
<path d="M558.824 594.832H242.944C242.549 594.837 242.153 594.806 241.764 594.739L391.16 335.962C392.072 334.351 393.395 333.01 394.995 332.077C396.595 331.144 398.413 330.653 400.265 330.653C402.116 330.653 403.935 331.144 405.534 332.077C407.134 333.01 408.457 334.351 409.369 335.962L509.633 509.621L514.436 517.931L558.824 594.832Z" fill="#282626"/>
<path opacity="0.2" d="M558.824 594.832H450.975L503.918 517.931L507.728 512.391L509.633 509.621L514.436 517.931L558.824 594.832Z" fill="black"/>
<path d="M734.704 594.832H461.494L514.436 517.931L518.246 512.391L587.236 412.174C591.759 405.606 602.639 405.197 607.957 410.935C608.314 411.326 608.646 411.74 608.95 412.174L734.704 594.832Z" fill="black"/>
<path d="M478.826 62.8566C478.826 97.5713 463.88 98.6499 439.531 98.6499C415.183 98.6499 390.652 97.5713 390.652 62.8566C390.652 28.1418 410.391 0 434.739 0C459.088 0 478.826 28.1418 478.826 62.8566Z" fill="#2F2E41"/>
<path d="M418.351 64.2707C418.351 64.2707 428.745 107.738 424.965 112.462C421.185 117.187 457.093 127.581 457.093 127.581L472.212 86.0042L463.707 85.0593C463.707 85.0593 451.423 82.2245 455.203 58.6012C458.983 34.9779 418.351 64.2707 418.351 64.2707Z" fill="#A0616A"/>
<path d="M434.887 76.5548C451.848 76.5548 465.597 62.8054 465.597 45.8445C465.597 28.8837 451.848 15.1342 434.887 15.1342C417.926 15.1342 404.177 28.8837 404.177 45.8445C404.177 62.8054 417.926 76.5548 434.887 76.5548Z" fill="#A0616A"/>
<path d="M404.649 218.767L382.916 237.666C382.916 237.666 316.77 262.234 331.889 300.031C347.008 337.829 375.356 393.58 375.356 393.58L382.916 411.533H401.814L414.098 405.864L411.264 398.304C411.264 398.304 404.649 387.91 404.649 382.241C404.649 376.571 393.31 311.371 385.75 306.646C385.75 306.646 423.548 269.794 450.951 267.904C478.354 266.014 485.913 259.399 501.032 267.904C516.151 276.408 575.682 292.472 575.682 292.472C575.682 292.472 607.81 351.058 623.873 361.452C639.937 371.846 653.166 406.809 653.166 406.809L679.624 402.084L666.395 374.681C666.395 374.681 653.166 354.838 653.166 346.333C653.166 337.829 609.7 255.62 578.517 242.391C547.334 229.161 532.219 216.998 532.219 216.998L460.761 197.619L404.649 218.767Z" fill="#2F2E41"/>
<path d="M382.916 398.304C382.916 398.304 376.301 393.58 371.576 403.029C366.852 412.478 353.623 434.212 353.623 434.212C353.623 434.212 314.881 463.505 344.173 471.064C344.173 471.064 358.347 472.009 382.916 455C407.484 437.992 425.438 429.487 426.383 426.652C427.327 423.817 420.713 391.69 414.098 391.69C407.484 391.69 409.374 406.809 401.814 406.809C396.413 406.938 391.035 407.571 385.75 408.699L382.916 398.304Z" fill="#2F2E41"/>
<path d="M688.255 407.44C687.404 405.024 686.082 402.801 684.366 400.899C682.649 398.998 680.573 397.455 678.257 396.362C675.94 395.268 673.43 394.645 670.871 394.528C668.312 394.411 665.755 394.803 663.349 395.681C661.897 396.226 660.915 396.792 660.726 397.359C659.781 400.194 651.229 401.594 650.308 399.949C649.387 398.304 642.772 393.58 647.497 411.533C652.221 429.487 666.395 468.229 673.955 474.844C681.514 481.458 707.972 480.514 709.862 473.899C711.752 467.284 708.917 455 705.138 450.276C701.358 445.551 694.743 430.432 693.798 424.763C693.354 422.094 690.816 414.614 688.255 407.44Z" fill="#2F2E41"/>
<path d="M518.757 274.052C518.757 274.052 526.192 306.097 540.788 298.567C555.384 291.038 524.785 261.047 524.785 261.047L518.757 274.052Z" fill="#A0616A"/>
<path d="M437.493 256.098C437.493 256.098 444.928 288.143 459.524 280.614C474.12 273.084 443.521 243.093 443.521 243.093L437.493 256.098Z" fill="#A0616A"/>
<path d="M509.537 203.648C498.604 207.012 491.413 207.381 487.964 210.764C487.535 211.175 487.163 211.642 486.858 212.153C484.023 216.877 471.739 218.767 455.675 214.987C450.294 213.575 444.698 213.165 439.168 213.778C433.677 214.335 428.15 215.498 417.878 214.987C399.953 214.09 391.382 155.4 387.319 139.676C387.102 138.816 386.894 138.089 386.695 137.503C382.916 126.164 402.759 114.825 405.594 111.99C408.429 109.155 416.933 97.8158 424.757 96.6347C432.572 95.4535 444.336 111.99 444.336 111.99C444.336 111.99 462.762 89.7839 460.873 84.1143C458.983 78.4447 478.826 82.2244 482.606 81.2795C484.742 80.7409 493.662 83.0748 501.023 85.2104C504.095 86.0979 506.824 87.9012 508.845 90.3797C510.866 92.8581 512.083 95.8939 512.334 99.082C512.457 100.622 512.589 102.295 512.721 104.09C515.064 134.952 518.92 200.766 509.537 203.648Z" fill="#E6E6E6"/>
<path opacity="0.1" d="M439.167 213.778C433.677 214.335 428.149 215.498 417.878 214.987C399.953 214.09 391.382 155.4 387.319 139.676C387.999 134.782 388.585 131.833 388.585 131.833L393.782 138.92C393.782 138.92 418.823 180.025 425.438 191.364C428.14 195.994 433.687 204.735 439.167 213.778Z" fill="black"/>
<path d="M394.255 128.054L385.75 131.833C385.75 131.833 374.411 188.529 394.255 216.877C414.098 245.225 421.658 249.95 425.438 254.675C426.568 256.048 428.026 257.115 429.678 257.776C431.329 258.436 433.121 258.67 434.887 258.454C434.887 258.454 431.107 267.904 437.722 267.904C444.336 267.904 468.904 258.454 462.29 255.62C455.675 252.785 449.061 248.06 450.951 243.335C452.841 238.611 429.217 202.703 422.603 191.364C415.988 180.025 394.255 128.054 394.255 128.054Z" fill="#E6E6E6"/>
<path opacity="0.1" d="M509.537 203.648C498.604 207.012 491.413 207.381 487.964 210.764C487.094 201.428 487.132 192.63 488.748 185.695C494.556 160.804 498.939 106.906 498.67 93.5637C498.638 91.9804 498.976 94.5086 500.56 94.5086V95.4535C507.552 95.4535 509.518 92.9683 511.483 99.6773C511.88 101.019 512.296 102.493 512.721 104.09C515.064 134.952 518.92 200.766 509.537 203.648Z" fill="black"/>
<path d="M497.252 88.3665H500.148C503.551 88.365 506.864 89.4663 509.588 91.5055C512.313 93.5446 514.304 96.4118 515.262 99.6774C518.872 112.415 521.694 125.363 523.71 138.448C529.38 173.41 535.995 260.344 535.05 262.234C534.105 264.124 546.389 273.573 540.719 275.463C535.05 277.353 524.655 281.133 519.931 282.078C515.206 283.023 505.757 273.573 505.757 273.573C505.757 273.573 485.913 214.043 492.528 185.695C499.142 157.347 497.252 88.3665 497.252 88.3665Z" fill="#E6E6E6"/>
<path d="M461.366 24.0077C461.366 33.4096 448.468 41.0314 432.557 41.0314C416.646 41.0314 402.001 46.0682 402.001 36.6664C402.001 27.2645 416.646 6.9841 432.557 6.9841C448.468 6.9841 461.366 14.6058 461.366 24.0077Z" fill="#2F2E41"/>
<path d="M390.914 68.7484C390.914 68.7484 389.738 100.396 421.187 98.6499C452.636 96.9039 416.937 71.5981 416.937 71.5981L390.914 68.7484Z" fill="#2F2E41"/>
<path d="M891.522 604.022H3.52234V606.263H891.522V604.022Z" fill="#3F3D56"/>
</g>
<defs>
<linearGradient id="paint0_linear" x1="102.311" y1="256.142" x2="102.311" y2="535.172" gradientUnits="userSpaceOnUse">
<stop stop-color="#F1C40F"/>
<stop offset="0.9999" stop-color="#FF5073"/>
<stop offset="1" stop-color="#F1C40F" stop-opacity="0"/>
</linearGradient>
<radialGradient id="paint1_radial" cx="0" cy="0" r="1" gradientUnits="userSpaceOnUse" gradientTransform="translate(356.903 396.405) rotate(-179.776) scale(103.404)">
<stop stop-color="#F8CC1E"/>
<stop offset="1" stop-color="#FF7A00"/>
</radialGradient>
<clipPath id="clip0">
<rect width="891.522" height="611.239" fill="white"/>
</clipPath>
</defs>
</svg>
